<svg xmlns="http://www.w3.org/2000/svg" id="Layer_1" data-name="Layer 1" viewBox="0 0 703.92 317.52"><title>(ECO) Logo Vector</title><g><g><path d="M603.87,317.76a50.27,50.27,0,0,1-7.12-2.34c-4.73-2.33-7.64-6.42-9.68-11.17a44.73,44.73,0,0,1-3.39-14.39,119.51,119.51,0,0,1-.43-12c.23-7.88,1.44-15.58,5.19-22.68,3.32-6.29,8.19-10.7,15.35-12.08,10.88-2.11,19.45,2.64,23.56,12.94a16.42,16.42,0,0,0,.94,2.14V214c0-1.77,0-1.77,1.79-1.78s3.67,0,5.51,0c.95,0,1.33.35,1.23,1.27a7.85,7.85,0,0,0,0,.84V314c0,.4,0,.8,0,1.2,0,.66-.28.92-.93.91-2.2,0-4.4,0-6.6,0-.95,0-1-.54-1-1.24,0-3.92,0-7.83,0-11.75v-1.66a6.05,6.05,0,0,0-.37.63c-3.07,8.34-8.63,13.86-17.6,15.51a1.06,1.06,0,0,0-.21.11Zm-11.52-36.93c.42,4.28.72,8.58,1.31,12.84a30.35,30.35,0,0,0,4.1,12.05c2.37,3.79,5.71,6.08,10.28,5.92a15.81,15.81,0,0,0,11.88-6.15c5.53-6.61,7.51-14.5,8.11-22.86a41.93,41.93,0,0,0-2.85-17.48A32.06,32.06,0,0,0,618,253c-5.82-5.82-14-5.43-18.87,1.05a26,26,0,0,0-3.5,6.63C593.21,267.14,592.63,273.94,592.35,280.83Z" style="fill: #0d542d"></path><path d="M531.66,317.76a43.46,43.46,0,0,1-5.8-1.83c-12.53-5.91-14.32-22.61-3.42-31.45,4.26-3.45,9.25-5.33,14.51-6.54a68.79,68.79,0,0,1,14.72-1.75,18.09,18.09,0,0,0,2.86-.2c.33-.06.84-.56.84-.86,0-5.54.44-11.11-.91-16.58-1.51-6.11-5.67-9.45-12-9.56a30.64,30.64,0,0,0-5.25.25c-5.16.81-8.15,3.82-9.12,9-.18,1-.34,2-.43,3-.06.73-.43.95-1.09.94-2.84,0-5.67,0-8.51,0-.92,0-1.15-.35-1-1.26,1.54-9.52,6.84-15.24,16.3-17.33a37.22,37.22,0,0,1,15.34-.23c8,1.57,12.84,6.46,14.39,14.43a45.52,45.52,0,0,1,.89,8.55c.09,16,0,32.05,0,48.07,0,1.8,0,1.8-1.77,1.8H557c-1.57,0-1.58,0-1.58-1.63,0-3,0-6,0-9l-.36-.28a1.47,1.47,0,0,1-.06.48c-3.93,6.45-9.48,10.58-17,11.88a1.48,1.48,0,0,0-.32.14Zm23.75-31.66c0-.92,0-1.84,0-2.76s-.25-1.32-1.22-1.25c-1.72.11-3.44.12-5.15.25A47.17,47.17,0,0,0,535.59,285a17.92,17.92,0,0,0-8.12,5.52c-4.37,5.55-4,17,6.85,19.21a15.62,15.62,0,0,0,16.38-6.77C554.13,297.84,555.36,292.13,555.41,286.1Z" style="fill: #0d542d"></path><path d="M388.91,317.76a21.85,21.85,0,0,1-8.71-3.49,18.68,18.68,0,0,1-.73-29.58,33.82,33.82,0,0,1,16-7c4.35-.77,8.79-1,13.19-1.51,1-.11,2.08-.06,3.1-.22.34-.05.87-.53.87-.81,0-5.47.46-11-.79-16.36-1.47-6.36-5.68-9.75-12.24-9.83a28.4,28.4,0,0,0-5.61.35c-4.81.9-7.77,4.07-8.59,8.94-.16,1-.25,1.9-.36,2.85a1,1,0,0,1-1.09,1q-4.32,0-8.64,0c-.87,0-1-.36-.91-1.21,1.39-9.56,7.24-15.71,16.82-17.52a37.62,37.62,0,0,1,15.81.14c7.45,1.76,11.83,6.54,13.32,13.92a48.58,48.58,0,0,1,1,9.15c.09,15.94,0,31.89,0,47.84,0,1.71,0,1.71-1.72,1.71-1.88,0-3.76,0-5.64,0-1,0-1.33-.34-1.32-1.32,0-2.68,0-5.35,0-8,0-.38,0-.76-.07-1.3-1,1.34-1.78,2.57-2.72,3.68a23.57,23.57,0,0,1-14.64,8.42,1.3,1.3,0,0,0-.32.14Zm23.75-31.42c0-1,0-2,0-3s-.25-1.35-1.22-1.26c-1.23.11-2.48.07-3.7.22-3.72.46-7.47.77-11.13,1.52-4.22.88-8.18,2.55-11.17,5.86A12.33,12.33,0,0,0,382.7,302c1.23,4.4,4.46,6.86,8.81,7.68,6.27,1.17,11.66-.62,15.68-5.7S412.57,292.75,412.66,286.34Z" style="fill: #0d542d"></path><path d="M671.53,317.76a22,22,0,0,1-8.71-3.49,18.69,18.69,0,0,1-.73-29.58,33.93,33.93,0,0,1,16.1-7c4.34-.76,8.78-1,13.18-1.5a15.21,15.21,0,0,1,1.91-.15c2.17,0,2,0,2-2.18-.07-3.91-.12-7.83-.32-11.73a19.32,19.32,0,0,0-.84-4.45c-1.59-5.36-5.35-8.37-10.94-8.66a30.9,30.9,0,0,0-6.45.28c-4.83.8-7.89,4.05-8.72,8.95-.16.91-.25,1.82-.34,2.73-.07.76-.4,1.14-1.22,1.13-2.84,0-5.67,0-8.51,0-.85,0-1.07-.31-1-1.19,1.44-10,8-16.45,18.21-17.8a39.39,39.39,0,0,1,14.52.42c7.41,1.78,11.74,6.55,13.23,13.87a48,48,0,0,1,.92,9.27c.09,15.86,0,31.72,0,47.59,0,1.87,0,1.87-1.94,1.87s-3.59,0-5.39,0c-1,0-1.33-.36-1.31-1.33,0-3,0-6.06,0-9.36a6.5,6.5,0,0,0-.63.72c-4,6.22-9.46,10.18-16.8,11.42a1.36,1.36,0,0,0-.33.14Zm23.76-31.47c0-.92-.07-1.84,0-2.75.11-1.19-.39-1.55-1.52-1.45-3.29.28-6.61.39-9.89.8a34.67,34.67,0,0,0-10.24,2.82c-6.11,2.8-9.11,7.36-8.8,13.61A10.36,10.36,0,0,0,671,308.6c6.27,3.09,14.4,1.08,18.84-4.67C693.85,298.74,695.21,292.7,695.29,286.29Z" style="fill: #0d542d"></path><path d="M155,317.76c-1.46-.18-2.93-.29-4.38-.54-10.35-1.79-16.93-8-20.63-17.6a49.12,49.12,0,0,1-3-15.08c-.4-7.17-.06-14.3,2.11-21.22,2-6.39,5.22-12,10.78-16a26,26,0,0,1,13.39-4.7,31.57,31.57,0,0,1,13.77,1.8c7.19,2.7,12,7.9,15.06,14.79a46.33,46.33,0,0,1,3.74,15.63,61.7,61.7,0,0,1-1.48,20.8,32.06,32.06,0,0,1-7.19,13.78c-4.77,5.15-10.8,7.65-17.72,8.17-.52,0-1,.12-1.53.18Zm21.57-37.14c-.06-1.18-.15-3.13-.27-5.08A47.06,47.06,0,0,0,173.65,262c-2.68-7.17-7.26-12.17-15.31-13.06-6.49-.71-12.07,1.06-16.11,6.42s-5.55,12-5.83,18.7a112.65,112.65,0,0,0,.47,14.46,36,36,0,0,0,4,13.72c5.21,10,16.15,11.46,24.41,7.39,4.63-2.28,7.14-6.38,8.8-11.08C176,293,176.47,287.21,176.56,280.62Z" style="fill: #0d542d"></path><path d="M.24,272.43c.46-2.82.78-5.69,1.41-8.48A28.75,28.75,0,0,1,9,249.66c4.08-4.14,9.17-6.11,14.85-6.77a28.68,28.68,0,0,1,12.32,1c7.35,2.36,11.74,7.57,14,14.75A37.42,37.42,0,0,1,51.89,270c0,1.59,0,1.59-1.57,1.59h-39c-1.7,0-1.74,0-1.69,1.7.25,8,1.19,15.93,4.82,23.26,3.94,7.93,10.08,13.12,19,14.59a38.58,38.58,0,0,0,15.67-1c.46-.11.91-.24,1.52-.4a7.42,7.42,0,0,1,.21,1.07c0,.88,0,1.76,0,2.64,0,3,.38,2.6-2.64,3.12s-6.41.72-9.62,1.06c-.4,0-.78.11-1.17.17H33.59c-1.46-.14-2.93-.25-4.38-.42a32.91,32.91,0,0,1-16-5.84c-6.38-4.67-9.81-11.21-11.54-18.73C1,290,.7,287.05.24,284.19Zm42.34-7.23c-.15-1.56-.19-2.92-.44-4.24-1-5.48-3.79-9.63-9.35-11.38a20.07,20.07,0,0,0-10.18-.41,13.31,13.31,0,0,0-9.87,7.41,35.65,35.65,0,0,0-2.15,6.8c-.45,1.79-.33,1.82,1.45,1.82H42.58Z" style="fill: #0d542d"></path><path d="M341.4,317.76c-2-.21-4-.36-5.93-.65-12.7-1.9-20.94-9-24.6-21.31-2.25-7.58-2.48-15.33-2-23.14A46,46,0,0,1,311.78,259c3.53-9,9.92-14.61,19.66-16a29.19,29.19,0,0,1,14.18,1.2c7.22,2.58,11.15,8,12.84,15.22.39,1.7.5,3.46.73,5.2.11.86-.27,1.22-1.17,1.2-2.8,0-5.59,0-8.39,0-.84,0-1.05-.32-1.12-1.12a48.66,48.66,0,0,0-1-7.45,10.42,10.42,0,0,0-10.13-8.2,23.2,23.2,0,0,0-5.95.35c-5.06,1.06-8.11,4.55-10.11,9.07a40.22,40.22,0,0,0-2.95,13.26,54.36,54.36,0,0,0,1.25,17.71c1.71,6.88,4.84,12.95,10.67,17.29,5.39,4,11.56,5.26,18.14,4.59,2.37-.24,4.71-.82,7.06-1.23a9.39,9.39,0,0,1,1-.08c0,1.89.05,3.71-.05,5.53,0,.27-.66.67-1.06.73-3.07.48-6.15.9-9.23,1.34l-1.41.17Z" style="fill: #0d542d"></path><path d="M97.89,317.76c-1.94-.21-3.89-.34-5.81-.64C78.59,315,70.14,307.29,66.9,294a67.53,67.53,0,0,1-1.5-20.93A45.87,45.87,0,0,1,68.72,258c3.9-9.05,10.7-14.17,20.58-15.14a29,29,0,0,1,13.1,1.43c7,2.59,10.87,7.87,12.53,14.93.41,1.74.52,3.54.76,5.32.12.89-.2,1.3-1.19,1.29-2.75-.05-5.51-.06-8.27,0-1,0-1.17-.4-1.24-1.28a47.58,47.58,0,0,0-.7-6.53c-1.05-5-4.19-8.05-9.32-8.82-5.35-.8-10.2.11-14,4.35a20.52,20.52,0,0,0-4.13,7.64,49.71,49.71,0,0,0-2,12.37A52.21,52.21,0,0,0,76.6,291c1.9,6.63,5.23,12.36,11.06,16.32a25.19,25.19,0,0,0,17.37,4c2.6-.28,5.18-.8,8-1.24,0,1.8,0,3.65,0,5.49,0,.27-.68.65-1.09.71-3.07.48-6.15.89-9.23,1.33l-1.16.17Z" style="fill: #0d542d"></path><path d="M454.68,263.28A47.88,47.88,0,0,1,461.92,251c3.6-4.23,7.91-7.39,13.54-8.17,6-.83,11.69,0,16.17,4.59,3,3,4.24,6.93,4.77,11a64.57,64.57,0,0,1,.51,8.11c0,15.94,0,31.89,0,47.83,0,1.72,0,1.72-1.73,1.73s-3.52-.07-5.28,0c-1.22.06-1.54-.39-1.54-1.59q0-23.91,0-47.83a43.39,43.39,0,0,0-.71-7.37c-1.62-9.13-9.23-10-14.83-8.15-4.16,1.4-7.1,4.4-9.52,7.91a51.82,51.82,0,0,0-8.57,22.77,19,19,0,0,0-.06,2.39v30.21c0,1.59,0,1.63-1.59,1.63-1.95,0-3.91,0-5.87,0-.87,0-1.26-.35-1.21-1.21,0-.36,0-.72,0-1.08V246.3a3.79,3.79,0,0,1,.05-1.31c.14-.35.55-.83.86-.84,2.28-.08,4.56,0,6.83,0,1,0,.93.67.93,1.32v17.85Z" style="fill: #0d542d"></path></g><g><path d="M480.5,109.22l-3.3,1c-3.52,1-7,2.29-10.58,3.06-4.21.91-8.44.78-12.32-1.53a15.87,15.87,0,0,1-5.72-6.33,53.27,53.27,0,0,1-5.65-17.24C441.73,80.8,440.72,73.4,440,66c-.81-8.62-1.23-17.28-1.73-25.93-.16-2.7,0-5.42,0-8.13l-.38-.08a8.45,8.45,0,0,0-.49.82c-5.52,11.08-11,22.2-16.59,33.25a80.82,80.82,0,0,1-9.61,15.44c-5.74,6.93-12.84,11.52-21.83,13.06a25.55,25.55,0,0,1-17.83-3.51c-2.27-1.33-4.4-2.9-6.59-4.36-.19-.12-.4-.21-.78-.4-.24,1.32-.46,2.52-.67,3.72q-5.62,32.3-11.23,64.58c-.31,1.76-.8,2.15-2.6,2a8,8,0,0,1-2.3-.59,2.25,2.25,0,0,1-1.38-2.73c1.49-9.51,3.05-19,4.38-28.54,1.08-7.71,1.92-15.45,2.79-23.19a159.56,159.56,0,0,0,1.17-22.71,51.8,51.8,0,0,0-.56-5.83c-.12-.85.14-1.24.9-1.34,2.61-.35,5.22-.74,7.84-1a2.3,2.3,0,0,1,1.57,1,29,29,0,0,0,8.17,8.16c7.68,4.82,19.22,5.59,27.1-.94a39.16,39.16,0,0,0,10.06-13.14c4.46-9.07,8.73-18.23,13.06-27.37q7.62-16.08,15.21-32.19c.32-.68.71-1.34,1.09-2,1.08-1.85,1.62-2.21,3.69-1.57a48.4,48.4,0,0,1,5.73,2.38,2.56,2.56,0,0,1,1.45,2.64c0,12.55-.13,25.1.05,37.64.08,6,.58,12,1.14,17.93.66,7,1.42,14,2.47,20.92a71.72,71.72,0,0,0,2.84,11.24,7.05,7.05,0,0,0,6.67,5,11.07,11.07,0,0,0,4.44-.74c5.11-2,10.13-4.15,15.23-6.13,3.79-1.48,7.65-2.78,11.47-4.16a1.66,1.66,0,0,1,2.39,1.09c.9,2.68,1.87,5.35,2.52,8.1.19.79-.46,1.88-.95,2.71-3,5.09-6,10.18-9.16,15.2q-27.78,44.7-55.62,89.37c-2.26,3.63-4.65,7.17-7,10.73-1,1.48-1.47,1.55-2.82.7s-1.75-1.77-1-3.18q4-7.29,8.08-14.57,11.87-21.18,23.76-42.34,10.6-18.93,21.17-37.88c1.61-2.9,3.16-5.84,4.72-8.76A9.2,9.2,0,0,0,480.5,109.22Z" style="fill: #72bf45"></path><path d="M218.28,236.83c1.22,1.2,2.46,2.38,3.67,3.59,6.25,6.26,12.52,12.47,18.71,18.78q9.56,9.76,19,19.67,4.5,4.74,8.75,9.71a30.92,30.92,0,0,1,3.18,4.77,3.74,3.74,0,0,1-.39,4.58c-2.78,3.2-5.54,6.41-8.39,9.54-2.24,2.45-4.59,4.79-6.91,7.16-.81.84-1.74,1.5-3,1a3.66,3.66,0,0,1-2.39-3.05,2.59,2.59,0,0,1,.6-1.6c2.9-3.87,6-7.59,8.71-11.58,3.06-4.51,2.93-5-.8-8.92-4.22-4.47-8.48-8.92-12.82-13.27q-8.26-8.28-16.68-16.39c-6.47-6.25-13-12.39-19.52-18.62-1.43-1.38-2.68-2.95-4-4.43a3,3,0,0,1-.73-3.11c.87-2.57,1.82-5.1,2.78-7.63.62-1.63,1.94-1.92,3.51-1.76,6.87.71,13.73,1.61,20.66,1.54a21.87,21.87,0,0,0,5.09-.67c2.86-.72,3.86-2.32,3.17-5.18-.83-3.45-1.72-6.9-2.87-10.26-4.65-13.57-9.43-27.09-14.09-40.66-1.32-3.85-2.34-7.81-3.55-11.7a1.58,1.58,0,0,1,1.16-2.29c1.86-.59,3.69-1.3,5.59-1.74,2.06-.48,3,0,3.81,1.95,1.31,3.13,2.63,6.27,3.68,9.5q7.14,21.93,14.1,43.94a41.19,41.19,0,0,1,2,13c-.08,7.45-3.32,11.57-10.59,13.29a54.63,54.63,0,0,1-17.39.86l-3.9-.33Z" style="fill: #72bf45"></path><path d="M300.29,164.33A18,18,0,0,1,296,172.2c-5.45,6.32-11.51,7.63-19.13,4.2a52,52,0,0,1-13.25-9A244.51,244.51,0,0,1,242,144.68c-5.28-6.11-10.34-12.4-15.49-18.61q-.3-.37-.57-.78c-1.13-1.65-.89-2.46,1-3.32a3.49,3.49,0,0,1,4.52.85l17.11,18.3a166.53,166.53,0,0,0,25,21.77,43.28,43.28,0,0,0,7.08,4c3.39,1.56,5.65.83,8-2.13a15.12,15.12,0,0,0,2.92-9.09c.1-2.87,0-5.75,0-8.63,0-.8,0-1.6,0-2.4.13-2.85.38-3.13,3.15-3.59,1.93-.32,3.87-.6,5.8-.92,1.63-.27,1.57-.26,2.07,1.29,2.47,7.59,4.9,15.21,7.49,22.76a23.53,23.53,0,0,0,6.47,9.94c4.52,4.09,9.61,5.86,15.66,4.45a10.57,10.57,0,0,1,2.39-.16c1.16,0,1.72.67,1.85,1.78a5.72,5.72,0,0,1-3.2,6c-6.32,3.28-12.43,2.49-18.34-1.12-4.84-3-8-7.37-10.63-12.26-1.27-2.39-2.29-4.92-3.42-7.39C300.62,165.09,300.46,164.71,300.29,164.33Z" style="fill: #72bf45"></path></g></g></svg>